<svg width="150" height="120" version="1.1" viewBox="0 0 39.687 31.75" xmlns="http://www.w3.org/2000/svg"><g transform="matrix(1 0 0 .99668 -57.15 -92.56)"><path d="m92.915 92.869-0.02481 0.11679-0.02481 0.11679-0.04548 0.13694-0.04496 0.13694-0.08992 0.18293-0.08992 0.18242-0.09147 0.13694-0.09198 0.13694-0.05684 0.07131-0.05684 0.0708-0.10284 0.11524-0.10284 0.11524-0.11782 0.10749-0.11731 0.10749-0.23358 0.18604-0.10129 0.07131-0.1018 0.07183-0.13694 0.08372-0.13643 0.08372-0.13229 0.06925-0.13229 0.06873-0.12196 0.05219-0.12144 0.05271-0.1726 0.05684-0.04341 0.01137-0.04289 0.01137v0.03772l-0.02584 0.08992-0.02635 0.08992-0.09508 0.22324-0.0832 0.15038-0.08372 0.14986-0.06253 0.09663-0.06253 0.09612-0.0036-0.0031-0.0031-0.0036 0.01964-0.13022 0.02015-0.12971 0.02636-0.11782 0.02635-0.11731 0.03927-0.13798 0.03876-0.13746 0.02636-0.07545 0.02584-0.07545v-0.0052l-0.08113 0.06046-0.08062 0.06098-0.13384 0.08113-0.13436 0.08113-0.20206 0.1018-0.20257 0.1018-0.1943 0.08682-0.1943 0.0863-0.28939 0.11472-0.28939 0.11524-0.2434 0.08837-0.24391 0.08837-0.42581 0.14056-0.42633 0.14056-0.0708 0.02326-0.0708 0.02274-0.32039 0.43873-0.31988 0.43822-0.0072 0.0072-0.0072 0.0067 0.04961-0.11266 0.05013-0.11265 0.05529-0.15038 0.05529-0.14986 0.02584-0.08578 0.02584-0.0863 0.02119-0.08527 0.0217-0.08475-0.0031-0.0083-0.0031-0.0088-0.06098 0.04599-0.06046 0.04599-0.08527 0.05064-0.08475 0.05064-0.25632 0.12816-0.23358 0.10128-0.16536 0.06253-0.16485 0.06253-0.14986 0.05064-0.14934 0.05116-0.19275 0.05994-0.19275 0.05943-0.35553 0.10128-0.15193 0.04134-0.15245 0.04082-0.28422 0.0708-0.28422 0.07131-0.26355 0.06046-0.26407 0.06098-0.29197 0.06149-0.29249 0.0615-0.33693 0.06149-0.33745 0.06098-0.33486 0.07132-0.40618 0.10128-0.22841 0.06615-0.22789 0.06615-0.30024 0.10025-0.29972 0.09974-0.30386 0.11369-0.30438 0.11317-0.2527 0.1018-0.25218 0.10129-0.26665 0.12092-0.13178 0.07183-0.13177 0.07235-0.24391 0.15192-0.10129 0.07131-0.10129 0.07183-0.09147 0.0708-0.09147 0.07131-0.09095 0.077-0.09147 0.07648-0.13694 0.12816-0.13746 0.12815-0.13384 0.14573-0.13384 0.14625-0.09302 0.11162-0.09353 0.11162-0.11937 0.15916-0.11937 0.15968-0.1111 0.16537-0.1111 0.16536-0.1726 0.28422-0.08992 0.16226-0.0894 0.16279-0.24805 0.50746-0.0863 0.20257-0.08578 0.20309-0.04444 0.11679-0.04444 0.11627-0.0036-0.0191-0.0036-0.0196 0.0124-0.077 0.01188-0.0765 0.02946-0.13022 0.02945-0.12971 0.04599-0.16433 0.04651-0.16433 0.06149-0.18294 0.06098-0.18241 0.07441-0.18811 0.0739-0.18758 0.05323-0.12196 0.05271-0.12195 0.09974-0.19793 0.09974-0.19792 0.08837-0.14727 0.08785-0.14677 0.06615-0.0946 0.06563-0.0951 0.08165-0.10283 0.08165-0.10336 0.11369-0.11317 0.11317-0.11317-0.09715 0.045-0.09715 0.0455-0.12712 0.0667-0.12661 0.0661-0.10697 0.0615-0.10645 0.0615-0.28422 0.1808-0.13591 0.0971-0.13643 0.0971-0.14779 0.11886-0.14831 0.11834-0.12971 0.1142-0.12971 0.11421-0.16433 0.16433-0.16485 0.16381-0.13074 0.14728-0.13126 0.14728-0.26768 0.33486-0.08423 0.11627-0.08475 0.11628-0.11369 0.17311-0.11369 0.1726-0.0894 0.15245-0.08888 0.15244-0.08527 0.16692-0.08475 0.16691-0.0052 5e-3 -0.0057 5e-3 0.0057-0.015 0.0052-0.0145 0.1018-0.42065 0.1018-0.42013-0.0082-8e-3 -0.08578 0.10438-0.08578 0.10491-0.08578 0.11679-0.0863 0.11627-0.05116 0.0765-0.05064 0.076-0.09198 0.15193-0.09147 0.15245-0.08165 0.15761-0.08165 0.1571-0.06563 0.14728-0.06563 0.14727-0.05788 0.14676-0.0584 0.14728-0.06356 0.19276-0.06408 0.19327-0.09406 0.33796-0.04496 0.2005-0.04496 0.19999-0.07132 0.41858-0.02015 0.16743-0.02067 0.16743-0.01499 0.17777-0.01499 0.17725-0.0072 0.21704-0.0067 0.21704-0.01964-0.0377-0.01964-0.0382-0.05374-0.13849-0.05374-0.1385-0.06201-0.19172-0.06253-0.19223-0.02222-0.0822-0.02274-0.0816-0.0144 0.152-0.01137 0.27905-0.01137 0.27906 0.0062 0.1881 0.0062 0.18758 0.0098 0.16744 0.01033 0.16743 0.01499 0.15244 0.01499 0.15245 0.02015 0.14676 0.02015 0.14624v0.0203l-0.08268-0.1416-0.08217-0.14107-0.0801-0.11679-0.07958-0.11679-0.08527-0.11007-0.08578-0.11007-0.10955-0.12092-0.10955-0.12144-0.10697-0.0956-0.10697-0.0956-0.07648-0.0574-0.07596-0.0568-0.08372-0.0501-0.08423-0.0496-0.03669-0.0155-0.03721-0.0155-0.0021 3e-3 -0.0026 3e-3 0.07028 0.11679 0.06976 0.11679 0.09043 0.18241 0.09095 0.18294 0.06511 0.15709 0.06511 0.15762 0.06305 0.17621 0.06253 0.17674 0.05581 0.18862 0.05581 0.18913 0.04961 0.20309 0.04961 0.20257 0.04082 0.20826 0.04082 0.20825 0.04238 0.29146-0.0062 6e-3 -0.0057 6e-3 -0.16433-0.16743-0.16485-0.16743-0.12247-0.14676-0.12299-0.14728-0.09922-0.13178-0.0987-0.13177-0.09353-0.14211-0.09405-0.14211-0.04806-0.0801-0.04857-0.0801-0.06046-0.108-0.06098-0.10749 0.0057 0.12196 0.0057 0.12144 0.01602 0.0966 0.0155 0.0961 0.02635 0.10645 0.02584 0.10697 0.05116 0.1571 0.05116 0.15761 0.12816 0.30696 0.08062 0.16175 0.08113 0.16175 0.07855 0.13642 0.07803 0.13643 0.0832 0.12661 0.08268 0.12712 0.03928 0.061-0.03514-0.0295-0.03566-0.0289-0.19069-0.17776-0.19069-0.17829-0.18707-0.1912-0.18707-0.1912-0.14263-0.15865-0.14263-0.15813-0.10749-0.12816-0.10749-0.12867-0.11472-0.15245-0.1142-0.15193-0.07596-0.11678-0.07596-0.11679-0.04444-0.0801-0.04444-0.0796-0.0036 0.0444-0.0031 0.0444 0.01085 0.20981 0.01137 0.2098 0.01499 0.11524 0.01499 0.11472 0.02067 0.11679 0.02119 0.11627 0.03462 0.1385 0.03462 0.13797 0.03152 0.10025 0.03204 0.10077 0.06046 0.15348 0.05994 0.15348 0.07493 0.1509 0.07493 0.15089 0.14676 0.24392 0.06718 0.0961 0.06666 0.0966 0.10077 0.12661 0.10077 0.12712 0.15606 0.15555 0.15606 0.15606-0.10748-0.014-0.10129-0.0202-0.1018-0.0201-0.10594-0.031-0.10594-0.0305-0.1018-0.0408-0.10232-0.0403-0.11059-0.0568-0.11059-0.0563-0.10232-0.0677-0.10284-0.0677-0.07596-0.062-0.07596-0.0615-0.10232-0.1049-0.1018-0.10491-0.03256-0.0408-0.03256-0.0403v0.014l0.04134 0.10438 0.04186 0.10439 0.06615 0.13022 0.06615 0.13023 0.06821 0.10283 0.06821 0.10336 0.06408 0.0801 0.06356 0.0801 0.15504 0.1622 0.21291 0.1716 0.08733 0.0543 0.08682 0.0538 0.1478 0.0744 0.08785 0.0351 0.08733 0.0357 0.11214 0.03 0.11162 0.03h0.05064l-0.0155 9e-3 -0.01499 9e-3 -0.13178 0.0264-0.13229 0.0264-0.1571 0.0248-0.15761 0.0253-0.09612 0.0109-0.09663 0.0109-0.1726 0.016 0.0925 0.0227 0.09302 0.0222 0.12041 0.0201 0.12041 0.0202 0.29456 0.032 0.56327 0.012v6e-3l-0.11576 0.2837-0.11576 0.28319-0.13901 0.3545-0.13901 0.35399-0.11627 0.3085-0.11679 0.30903-0.08113 0.22376-0.08165 0.22427-0.09405 0.26924-0.09405 0.26872-0.10749 0.32504-0.10697 0.32453-0.0677 0.21859-0.06718 0.21807-0.08423 0.29404-0.08423 0.29456-0.06459 0.2558-0.0646 0.25528-0.01705 8e-3 -0.01757 8e-3 -0.03411 0.0165-0.19534 0.03-0.2527 0.0119-0.25218 0.0119-0.3514-0.0124-0.35192-0.0119-0.20257-0.0155-0.20309-0.015-0.15761-0.016-0.1571-0.0155-0.1571-0.0202-0.15761-0.0196-0.33486-0.0516-0.17673-0.0351-0.17622-0.0357-0.13798-0.0351-0.13849-0.0351-0.15193-0.0512-0.15141-0.0517-0.10284-0.0481-0.10232-0.0486-0.07545-0.0512-0.07596-0.0506-0.04857-0.0527-0.04909-0.0522-0.02584-0.0569-0.02584-0.0563 0.0046-0.0785 0.0041-0.0786 0.03876-0.0703 0.03824-0.0698 0.05064-0.0641 0.05116-0.0636 0.13436-0.1148 0.08113-0.0527 0.08165-0.0527 0.22324-0.1116 0.13694-0.0517 0.13694-0.0512 0.12712-0.0357 0.12661-0.0357 0.10645-0.0253 0.10697-0.0248 0.13178-0.0258 0.13178-0.0253 0.33486-0.0516 0.45682-0.0506 0.19792-0.0155 0.19792-0.015 0.18294-0.0103 0.18242-0.0109 0.68006-0.03 0.02067-5.2e-4 0.02015-5.1e-4 -0.06202-0.0268-0.13126-0.033-0.10077-0.015-0.10025-0.0155-0.22169-0.0109-0.22118-0.0114-0.27647 0.0114-0.27595 0.0109-0.18345 0.0155-0.18294 0.0155-0.21342 0.0258-0.21291 0.0258-0.18294 0.0295-0.18242 0.03-0.13177 0.0264-0.13229 0.0258-0.14728 0.0351-0.14676 0.0346-0.15761 0.0465-0.1571 0.0465-0.24391 0.092-0.20567 0.0982-0.11007 0.0734-0.11059 0.0734-0.11265 0.11213-0.11266 0.11214-0.04134 0.0713-0.04134 0.0708-0.02325 0.0661-0.02274 0.0661v0.20258l0.02222 0.0605 0.02222 0.0599 0.06614 0.1116 0.07648 0.0775 0.077 0.0775 0.09508 0.0636 0.0956 0.0641 0.08888 0.0444 0.0894 0.045 0.09922 0.0393 0.0987 0.0393 0.12712 0.0413 0.12712 0.0408 0.12144 0.0305 0.12196 0.0305 0.12661 0.0258 0.12712 0.0258 0.27647 0.0455 0.27647 0.046 0.63459 0.091 0.29921 0.0357 0.29972 0.0357 0.20309 0.0207 0.20309 0.0202 0.2434 0.0202 0.2434 0.0196 0.19327 0.0109 0.19275 0.0114 0.05581 3e-3 0.05529 3e-3 0.23358-1e-3 0.23358-2e-3 0.03307-0.0176 0.03256-0.0176 0.0021-0.0124 0.0026-0.0124v-0.16278l5.17e-4 -0.16227 0.0078-0.0305 0.0036-0.015 0.0036-0.0155 0.0072-0.03 0.0078-0.0305 0.05633-0.11162 0.05581-0.11162 0.14624-0.23358 0.14624-0.23357 0.2067-0.31265 0.20671-0.31315 0.21601-0.308 0.11679-0.15709 0.11679-0.15762 0.08682-0.10645 0.08733-0.10645 0.08888-0.0925 0.0894-0.0925 0.0041-0.14625 0.0046-0.14573 0.01602-0.12195 0.0155-0.12196 0.04134-0.22324 0.03049-0.13178 0.02997-0.13229 0.05581-0.19482 0.05581-0.19533 0.06046-0.1757 0.05994-0.17622 0.06046-0.15658 0.05994-0.15658 0.07596-0.17777 0.07596-0.17776 0.07958-0.17002 0.0801-0.17002h0.0171l0.06925 0.1447 0.06976 0.14469 0.06614 0.17777 0.06615 0.17725 0.06615 0.21394 0.06563 0.21446 0.05684 0.2067 0.05633 0.20723v0.0258h0.0196l0.0248-0.0837 0.02532-0.0837 0.02015-0.0811 0.02015-0.0817 0.03204-0.1942 0.0093-0.14625 0.0093-0.14624-0.0093-0.14573-0.0093-0.14521-0.03204-0.186-0.02894-0.122v-0.016l0.07338 0.1384 0.05736 0.0811 0.05684 0.0806 0.13746 0.13849 0.13694 0.1385 0.10335 0.0816 0.10335 0.0817 0.09973 0.0703 0.09922 0.0703 0.03772 0.0222 0.03721 0.0222-0.09664-0.14469-0.09612-0.14469-0.12454-0.20826-0.12454-0.20826-0.09405-0.1757-0.09405-0.17569 0.0041-4e-3 0.0047-4e-3 0.03411 0.046 0.03411 0.0455 0.04599 0.0388 0.04651 0.0388 0.0646 0.0434 0.06511 0.0439 0.16744 0.0786 0.24081 0.0796 0.11937 0.0269 0.11989 0.0264 0.14159 0.0202 0.14159 0.0196 0.28939 0.018 0.0026-2e-3 0.0021-2e-3 -0.13384-0.0744-0.13436-0.0749-0.16226-0.0961-0.16278-0.0966-0.1571-0.10387-0.1571-0.10335-0.1018-0.0765-0.10129-0.0765-0.05891-0.0532-0.05891-0.0527 0.0062-6e-3 0.06098 0.0145 0.06046 0.0145 0.11679 0.0155 0.11679 0.016h0.38912l0.14056-0.0165 0.14004-0.016 0.13746-0.0253 0.13694-0.0253 0.11782-0.0294 0.11731-0.03 0.0248-0.01 0.02429-0.01-0.04082-1e-3 -0.04031-5.2e-4 -0.29456-0.0206-0.13178-0.015-0.13229-0.015-0.1571-0.0264-0.15761-0.0258-0.38551-0.0982-0.0248-9e-3 -0.02481-9e-3 0.12144-7e-3 0.12092-7e-3 0.09663-0.0103 0.09612-0.0103 0.11679-0.0202 0.11627-0.0196 0.11576-0.0258 0.11524-0.0258 0.29766-0.0816 0.33486-0.1116 0.37517-0.1488 0.30489-0.1354 0.38551-0.1902 0.14211-0.0775 0.14211-0.078 0.12919-0.076 0.12971-0.076v-6e-3l-0.12454 0.0507-0.12402 0.0501-0.19275 0.0698-0.19327 0.0698-0.20309 0.0625-0.20257 0.0625-0.21342 0.0548-0.21291 0.0548-0.20464 0.0413-0.20412 0.0408-0.17105 0.0248-0.17157 0.0253-0.17725 0.0155-0.17777 0.015-0.21342-2e-3 -0.21291-2e-3 0.03566-3e-3 0.03514-3e-3 0.13229-0.0114 0.13178-0.0108 0.15244-0.0248 0.15193-0.0248 0.13694-0.0305 0.13746-0.0305 0.26355-0.0724 0.35553-0.1116 0.43615-0.1622 0.14728-0.0605 0.14728-0.061 0.16226-0.0718 0.16226-0.0713 0.24391-0.11576 0.2434-0.11627 0.24391-0.12764 0.2434-0.12764 0.45682-0.25425 0.23358-0.13952 0.23306-0.14005 0.02067-0.0165 0.02015-0.016-0.04082 0.017-0.04031 0.0165-0.22944 0.0796-0.14418 0.0351-0.14418 0.0357-0.1726 0.0294-0.1726 0.0295-0.28422 0.032-0.12661 0.0103-0.12712 0.0108-0.62942 0.012-0.23048-8e-3 -0.23099-8e-3 0.0114-0.018h0.11524l0.16795-0.0155 0.16743-0.015 0.15555-0.0207 0.15555-0.0202 0.14883-0.0258 0.14883-0.0253 0.18294-0.0403 0.18242-0.0403 0.16278-0.0455 0.16278-0.045 0.19379-0.0656 0.1943-0.0656 0.15555-0.0625 0.15606-0.0625 0.22428-0.10955 0.22479-0.10955 0.14573-0.0837 0.14624-0.0837 0.16226-0.10646 0.16226-0.10697 0.11679-0.0863 0.11679-0.0868 0.1018-0.0822 0.10129-0.0816 0.13178-0.11782 0.13229-0.11834 0.16743-0.17105 0.16743-0.17156 0.2005-0.23358 0.0987-0.12713 0.09922-0.1266 0.1819-0.25632 0.0863-0.13591 0.0863-0.13539 0.08423-0.14624 0.08372-0.14573 0.11472-0.23461 0.1142-0.23513 0.05323-0.13178 0.05323-0.13177 0.03876-0.11162 0.03927-0.11162-0.0166-6e-3 -0.13643 0.0305-0.13591 0.0305-0.19275 0.0351-0.19327 0.0351-0.43615 0.061-0.07131 6e-3 -0.0708 6e-3 0.23358-0.0786 0.11162-0.0486 0.11162-0.0491 0.18242-0.091 0.18294-0.0915 0.18242-0.1018 0.18293-0.10232 0.39894-0.23874 0.15916-0.1024h-0.0083l-0.0083-5.2e-4 -0.99322 0.10697-0.99322 0.10645-0.02377-5.1e-4h-0.02325l0.01499-9e-3 0.0155-9e-3 0.3328-0.11265 0.33331-0.11266 0.23513-0.0703 0.23513-0.0708 0.1881-0.0517 0.18758-0.0517 0.22324-0.0543 0.22324-0.0548 0.09663-0.0217 0.09664-0.0212 0.07028-0.1974 0.09198-0.18294 0.09198-0.18241 0.08062-0.12713 0.08061-0.1266 0.10284-0.13746 0.10284-0.13798 0.09457-0.1111 0.09457-0.11111 0.16846-0.17105 0.16795-0.17105 0.14728-0.13177 0.14728-0.13178 0.16743-0.13487 0.16743-0.13488 0.32453-0.23874 0.24908-0.16485 0.24856-0.16485 0.19275-0.11575 0.19275-0.11628 0.1726-0.0966 0.1726-0.0971 0.19792-0.1049 0.19792-0.10491 0.44648-0.21704 0.35657-0.1622 0.14624-0.0636 0.14676-0.063 0.22118-0.0889 0.22118-0.08837-0.45475-0.15503-0.45424-0.15555-0.0052-0.0047-0.0052-0.0052 0.44648 0.0124 0.20826 0.01602 0.20826 0.0155 0.18758 0.01964 0.18758 0.02015 0.43718 0.06202 0.14883-0.08113 0.14883-0.08165 0.34106-0.2067 0.17828-0.11989 0.1788-0.11937 0.3638-0.27182 0.11989-0.09715 0.11989-0.09767 0.14934-0.12971 0.14883-0.12919 0.27957-0.28009 0.27957-0.27957 0.11989-0.13694 0.11989-0.13694 0.15451-0.19275 0.15503-0.19327 0.0987-0.13488 0.09819-0.13488 0.10387-0.15451 0.10387-0.154 0.08113-0.13229 0.08165-0.13178 0.06718-0.11731 0.0677-0.11782 0.08217-0.15658 0.08268-0.15658 0.15192-0.32246 0.05633-0.13281 0.05581-0.13333 0.04134-0.10645 0.04083-0.10645 0.06511-0.19275 0.06511-0.19327 0.04496-0.16433 0.04547-0.16433 0.02997-0.13488 0.03049-0.13488 0.02532-0.14728 0.02584-0.14728 0.04134-0.35553 0.0124-0.48783-0.0078-0.04031zm-3.3962 4.0778 0.0036 0.0036 0.0031 0.0036-0.10852 0.05891-0.10904 0.05891-0.38034 0.19637-0.38086 0.19637-0.39584 0.19224-0.39584 0.19172-0.44648 0.20774-0.57878 0.25942-0.27388 0.11679-0.27389 0.11679-1.0253 0.42065-0.62942 0.26975-0.44648 0.20257-0.19792 0.09354-0.19792 0.09353-0.63975 0.32246-0.24856 0.13538-0.24856 0.13591-0.21446 0.12248-0.21497 0.12299-0.21136 0.12919-0.21187 0.12919-0.23358 0.14986-0.23306 0.14934-0.2589 0.17674-0.2589 0.17673-0.21342 0.15555-0.21291 0.15554-0.19275 0.1478-0.19275 0.14728-0.17777 0.14262-0.17777 0.14211-0.18242 0.15245-0.18293 0.15244-0.20257 0.17777-0.20309 0.17828-0.13694 0.12558-0.13746 0.12609-0.27802 0.26458-0.2775 0.2651-0.54054 0.55914-0.1881 0.20257-0.18758 0.20309-0.17157 0.19224-0.17157 0.19275-0.20464 0.23875-0.20464 0.23822-0.15606 0.18811-0.15555 0.18758-0.23513 0.29456-0.23461 0.29404-0.15244 0.19792-0.15245 0.19792-0.13694 0.18293-0.13694 0.18242-0.17777 0.24391-0.17725 0.2434-0.1509 0.21342-0.1509 0.21291-0.07183 0.1018-0.07131 0.10129-0.65112 0.97462-0.21911 0.34468-0.21911 0.3452-0.1974 0.32504-0.19792 0.32453-0.17725 0.30437-0.17777 0.30489-0.15244 0.27389-0.15245 0.27388-0.12919 0.2434-0.12919 0.24288-0.1142 0.22893-0.11472 0.22892-0.1633 0.35554-0.12661 0.30954-0.12712 0.30954-0.08113 0.18759-0.08113 0.18758-0.06046 0.13229-0.06046 0.13178-0.08165 0.16278-0.08165 0.1633-0.05788 0.10076-0.0584 0.10077-0.07183 0.10697-0.07183 0.10646-0.1018 0.10232-0.1018 0.10283-0.07493 0.0367-0.07493 0.0372h-0.05478l-0.02481-0.0263-0.02429-0.0264 5.17e-4 -0.0977 1e-3 -0.0982 0.02739-0.10646 0.02739-0.10697 0.05478-0.16226 0.05529-0.16226 0.08733-0.21343 0.08733-0.21291 0.12506-0.30954 0.12454-0.30954 0.17364-0.39584 0.18604-0.40618 0.20671-0.41599 0.2067-0.41651 0.14159-0.26355 0.14108-0.26407 0.12402-0.22324 0.12454-0.22325 0.13746-0.23874 0.13746-0.23823 0.3762-0.62942 0.18397-0.29455 0.18397-0.29404 0.13074-0.20309 0.13126-0.20309 0.24443-0.36535 0.24495-0.36587 0.14056-0.20257 0.14056-0.20309 0.20309-0.28422 0.2036-0.28422 0.5054-0.678 0.17363-0.22427 0.17363-0.22428 0.20154-0.25115 0.20102-0.25114 0.15865-0.19017 0.15865-0.19069 0.14831-0.17208 0.1478-0.17157 0.32556-0.3669 0.19275-0.20774 0.19224-0.20774 0.23358-0.23409 0.23306-0.23461 0.39584-0.36174 0.40618-0.3483 0.14211-0.11627 0.14211-0.11627 0.32453-0.25528 0.20309-0.15245 0.20309-0.15193 0.21808-0.15709 0.21859-0.1571 0.17725-0.12196 0.17777-0.12247 0.24391-0.16226 0.2434-0.16278 0.44648-0.28422 0.1726-0.10646 0.1726-0.10645 0.21342-0.12712 0.21291-0.12713 0.12196-0.0713 0.12144-0.0713 0.17777-0.10128 0.17777-0.10129 0.19534-0.10851 0.19585-0.10852 0.2558-0.13694 0.25632-0.13643 0.41083-0.20619 0.41134-0.20567 0.38551-0.1788 0.21342-0.09147 0.21291-0.09147 0.56844-0.20774 0.46716-0.17776 0.55087-0.21704 0.55139-0.21704 0.7276-0.29301 0.7276-0.29352 0.58756-0.23978z" style="fill:#4d4d4d;stroke-width:.038194"/><path d="m76.274 110.8v-6e-3h0.012v0.012h-0.012z" style="fill:#666;stroke-width:.045378"/><path d="m76.25 110.82v-6e-3h0.012v0.012h-0.012z" style="fill:#666;stroke-width:.045378"/><path d="m78.336 105.43v-6e-3h-0.012v0.012h0.012z" style="fill:#666;stroke-width:.045378"/><path d="m75.866 106.68v0.01h0.0091v-0.01h-0.0046z" style="fill:#666;stroke-width:.034223"/><path d="m75.884 106.67v0.01h0.0091v-0.01h-0.0046z" style="fill:#666;stroke-width:.034223"/><path d="m77.43 102.61h0.0091v0.01h-0.0091v-5e-3z" style="fill:#666;stroke-width:.034223"/><path d="m92.74 117.17-2.4102 0.15063v0.51216h0.1908c0.61259 0 0.65276 0.0502 0.64271 0.93394v4.9007c-0.01004 0.14059-0.02008 0.20085-0.06025 0.2611-0.0703 0.0904-0.2611 0.13055-0.70297 0.13055h-0.04017v0.51216h3.0629v-0.51216c-0.56237 0-0.69292-0.0803-0.68288-0.43182v-0.78331l0.46195-0.41173 0.9239 1.1247c0.08034 0.0904 0.13055 0.21089 0.13055 0.30127 0 0.1406-0.13055 0.20085-0.39165 0.20085h-0.10042v0.51216h3.073v-0.51216c-0.35148 0-0.43182-0.0602-0.88373-0.63267l-1.5767-1.9784 0.77326-0.64271c0.39165-0.34144 0.69292-0.47199 1.0846-0.47199h0.23098v-0.51216h-2.9525v0.51216h0.12051c0.38161 0 0.60254 0.10042 0.60254 0.27114 0 0.13055-0.0703 0.24102-0.25106 0.4017l-1.2453 1.0946z" style="fill:#4584b6;stroke-linecap:round;stroke-linejoin:round;stroke-width:.1046"/><path d="m85.831 119.82-2.2997 0.0703v0.51216h0.15064c0.62263 0.01 0.65276 0.0502 0.64271 0.97411v2.2896c-0.01004 0.14059-0.02009 0.20085-0.06026 0.2611-0.0703 0.0904-0.2611 0.13055-0.69292 0.13055h-0.04017v0.51216h3.0629v-0.51216c-0.57242 0-0.70297-0.0803-0.69292-0.43182v-1.4762c0-0.45191 0.04017-0.71301 0.16068-0.95403 0.16068-0.36152 0.51216-0.5925 0.87369-0.5925 0.47199 0 0.73309 0.34144 0.73309 0.98415v2.0788c-0.01004 0.14059-0.02008 0.20085-0.06025 0.2611-0.10042 0.10042-0.29123 0.14059-0.63267 0.13055v0.51216h3.0629v-0.51216h-0.04017c-0.67284-0.01-0.75318-0.0602-0.75318-0.43182v-2.1792c0-0.62263-0.11047-1.0042-0.38161-1.2955-0.27114-0.31131-0.71301-0.48203-1.2453-0.48203-0.79335 0-1.2955 0.29123-1.7875 1.0344z" style="fill:#4584b6;stroke-linecap:round;stroke-linejoin:round;stroke-width:.1046"/><path d="m79.153 124.57h3.9065v-0.54229h-0.15064c-0.54229 0-0.74314-0.0402-0.83352-0.15063-0.0703-0.10042-0.0703-0.13055-0.0703-0.75318v-4.3584c0-0.62262 0-0.65275 0.0703-0.75317 0.09038-0.11047 0.29123-0.15064 0.83352-0.15064h0.15064v-0.54229h-3.9065v0.54229h0.15064c0.53225 0 0.73309 0.0402 0.82348 0.15064 0.0703 0.10042 0.0703 0.13055 0.0703 0.75317v4.3584c0 0.62263 0 0.65276-0.0703 0.75318-0.09038 0.11047-0.29123 0.15063-0.82348 0.15063h-0.15064z" style="fill:#4584b6;stroke-linecap:round;stroke-linejoin:round;stroke-width:.1046"/><path d="m72.143 117.17-2.4102 0.15063v0.51216h0.19081c0.61258 0 0.65275 0.0502 0.64271 0.93394v4.9007c-0.01004 0.14059-0.02008 0.20085-0.06025 0.2611-0.0703 0.0904-0.2611 0.13055-0.70297 0.13055h-0.04017v0.51216h3.1332v-0.51216h-0.0703c-0.60254-0.0201-0.68288-0.0703-0.68288-0.43182v-0.50212z" style="fill:#4d4d4d;stroke-linecap:round;stroke-linejoin:round;stroke-width:.1046"/><path d="m76.13 119.67c-0.81343 0-1.4762 0.2611-1.9783 0.77326-0.45191 0.47199-0.72306 1.1348-0.72306 1.7976 0 0.72305 0.31131 1.4361 0.81343 1.8679 0.46195 0.39166 1.1348 0.61259 1.898 0.61259 1.175 0 1.9482-0.5222 2.3901-1.5967l-0.49207-0.20084c-0.4017 0.78331-0.84357 1.1147-1.5064 1.1147-0.46195 0-0.86364-0.22094-1.1147-0.60255-0.17072-0.27114-0.24103-0.58244-0.25107-1.1549h3.3642v-0.1607c0-1.4963-0.92391-2.4503-2.4001-2.4503zm0.03015 0.52219c0.5222 0 0.79334 0.42179 0.79334 1.2151 0 0.24101-0.0703 0.32135-0.27115 0.32135h-1.5064c0-0.95403 0.38163-1.5365 0.98417-1.5365z" style="fill:#4d4d4d;stroke-linecap:round;stroke-linejoin:round;stroke-width:.1046"/><path d="m66.53 119.67c-1.5967 0-2.7817 1.0846-2.7817 2.5407 0 1.4562 1.1549 2.5106 2.7416 2.5106 1.5867 0 2.7617-1.0645 2.7617-2.5006 0-1.426-1.195-2.5508-2.7215-2.5508zm-0.02011 0.52219c0.35148 0 0.67286 0.24103 0.80341 0.59251 0.12051 0.3314 0.20084 0.89376 0.20084 1.426 0 1.2754-0.36154 1.9884-1.0143 1.9884-0.67284 0-1.0143-0.67285-1.0143-1.9984 0-1.3356 0.34142-2.0085 1.0243-2.0085z" style="fill:#4d4d4d;stroke-linecap:round;stroke-linejoin:round;stroke-width:.1046"/><path d="m62.543 117.25h-0.45191l-0.5222 0.46195c-0.58246-0.38161-1.1047-0.54228-1.7976-0.54228-1.5566 0-2.611 0.90381-2.611 2.2394 0 1.2252 0.90382 2.0989 2.4805 2.3901l0.62263 0.1205c0.65276 0.12051 0.84356 0.17072 1.0846 0.30128 0.28119 0.15063 0.44186 0.44186 0.44186 0.80339 0 0.71301-0.57242 1.175-1.4461 1.175-1.1348 0-2.129-0.89378-2.6813-2.4001h-0.51216l0.06025 2.842h0.45191l0.62263-0.5925c0.61259 0.46195 1.2453 0.67284 2.0587 0.67284 1.5666 0 2.6512-0.97411 2.6512-2.3901 0-1.2754-0.75318-1.9884-2.4905-2.37l-0.48204-0.11047c-0.77326-0.15063-0.77326-0.15063-1.0243-0.24101-0.46195-0.16068-0.68288-0.45191-0.68288-0.87369 0-0.61259 0.56237-1.0444 1.3557-1.0444 1.0444 0 1.8679 0.72305 2.4704 2.1591h0.53225z" style="fill:#4d4d4d;stroke-linecap:round;stroke-linejoin:round;stroke-width:.1046"/></g></svg>
